<?xml version="1.0" standalone="no"?>
<!DOCTYPE svg PUBLIC "-//W3C//DTD SVG 20010904//EN"
 "http://www.w3.org/TR/2001/REC-SVG-20010904/DTD/svg10.dtd">
<svg version="1.0" xmlns="http://www.w3.org/2000/svg"
 width="154.000000pt" height="108.000000pt" viewBox="0 0 154.000000 108.000000"
 preserveAspectRatio="xMidYMid meet">

<g transform="translate(0.000000,108.000000) scale(0.100000,-0.100000)"
fill="#000000" stroke="none">
<path d="M382 910 c-105 -22 -147 -84 -147 -220 0 -93 7 -120 41 -154 35 -35
110 -55 231 -64 l98 -7 3 -109 c2 -81 -1 -112 -10 -118 -20 -12 -204 -9 -285
6 -40 7 -73 10 -73 7 -1 -3 -5 -25 -9 -48 -10 -49 -14 -47 136 -64 167 -18
287 8 335 72 29 39 43 142 29 212 -24 110 -81 143 -264 154 l-108 6 3 116 3
116 93 3 c51 1 122 -1 158 -6 71 -9 68 -11 76 58 3 21 -2 25 -37 31 -75 13
-230 18 -273 9z"/>
<path d="M900 525 l0 -375 195 0 195 0 0 50 0 50 -140 0 -140 0 0 325 0 325
-55 0 -55 0 0 -375z"/>
</g>
</svg>
